<?xml version="1.0" encoding="UTF-8"?>
<svg id="Capa_2" data-name="Capa 2" xmlns="http://www.w3.org/2000/svg" xmlns:xlink="http://www.w3.org/1999/xlink" viewBox="0 0 324.31 38.04">
  <defs>
    <style>
      .cls-1 {
        fill: none;
      }

      .cls-1, .cls-2 {
        stroke-width: 0px;
      }

      .cls-3 {
        clip-path: url(#clippath-1);
      }

      .cls-4 {
        clip-path: url(#clippath);
      }

      .cls-2 {
        fill: #fff;
      }
    </style>
    <clipPath id="clippath">
      <rect class="cls-1" width="324.31" height="38.04"/>
    </clipPath>
    <clipPath id="clippath-1">
      <rect class="cls-1" y="0" width="324.31" height="38.04"/>
    </clipPath>
  </defs>
  <g id="FONDOS">
    <g id="horizontal_blanco" data-name="horizontal blanco">
      <g class="cls-4">
        <g class="cls-3">
          <path class="cls-2" d="M.65,30.47l3.58-3.98c2.13,2.35,4.21,3.73,6.82,3.73,3.09,0,5.01-1.86,5.01-6.18V3.7C16.06,1.65,17.71,0,19.75,0h4.72v24.4c0,4.42-1.28,7.73-3.52,9.96-2.29,2.29-5.65,3.46-9.7,3.46-4.56,0-7.9-1.58-10.37-3.72-1.08-.94-1.2-2.58-.24-3.64"/>
          <path class="cls-2" d="M68.61,3.7C68.61,1.66,70.27,0,72.31,0h11.76c9.03,0,14.49,5.35,14.49,13.09v.11c0,8.76-6.81,13.3-15.3,13.3h-6.33v8.81c0,1.41-1.14,2.55-2.55,2.55h-5.78V3.7ZM83.54,19.09c4.16,0,6.6-2.49,6.6-5.73v-.11c0-3.73-2.6-5.73-6.76-5.73h-6.44v11.57h6.6Z"/>
          <path class="cls-2" d="M60.69,7.78h-28.55V.48h26.46c1.15,0,2.08.93,2.08,2.08v5.22Z"/>
          <path class="cls-2" d="M60.95,29.84h-28.81v7.3h26.72c1.15,0,2.08-.93,2.08-2.08v-5.22Z"/>
          <rect class="cls-2" x="32.14" y="15.16" width="26.28" height="7.3"/>
          <path class="cls-2" d="M125.25,4.77h1.44v7.57c0,.67-.11,1.22-.31,1.64-.21.42-.47.76-.79,1-.31.25-.65.42-1.01.51-.36.1-.69.14-.99.14-.75,0-1.38-.19-1.89-.58-.51-.38-.84-.97-.98-1.74l1.41-.31c.08.4.24.71.49.94.25.23.57.35.97.35.36,0,.64-.07.86-.21.21-.14.38-.32.5-.55.12-.22.2-.48.24-.77.04-.29.06-.59.06-.88v-7.11Z"/>
          <path class="cls-2" d="M132.49,4.77v6.49c0,.33.04.67.13,1.02.09.36.24.68.45.98.21.3.48.55.82.73.34.19.76.28,1.26.28s.92-.09,1.26-.28c.34-.19.61-.43.82-.73.21-.3.36-.62.45-.98.09-.35.13-.7.13-1.02v-6.49h1.44v6.72c0,.62-.1,1.18-.31,1.68s-.5.94-.87,1.31c-.37.37-.8.65-1.3.85-.5.2-1.04.3-1.62.3s-1.12-.1-1.62-.3c-.5-.2-.93-.48-1.3-.85-.37-.37-.66-.8-.87-1.31-.21-.5-.31-1.06-.31-1.68v-6.72h1.44Z"/>
          <path class="cls-2" d="M143.88,4.77h3.73c.68,0,1.24.09,1.68.28.44.19.79.42,1.04.7.25.28.43.6.53.96.1.35.15.7.15,1.03s-.06.67-.18.98c-.12.31-.29.6-.52.85-.22.25-.5.47-.82.64-.32.17-.69.28-1.09.32l3.01,4.83h-1.8l-2.69-4.67h-1.6v4.67h-1.44V4.77ZM145.32,9.43h1.88c.28,0,.56-.02.83-.07.27-.04.52-.13.73-.25.21-.12.39-.29.52-.52.13-.22.19-.51.19-.87s-.07-.65-.19-.88c-.13-.23-.3-.4-.52-.52-.21-.12-.46-.2-.73-.25-.28-.04-.55-.07-.83-.07h-1.88v3.41Z"/>
          <rect class="cls-2" x="155.12" y="4.77" width="1.44" height="10.59"/>
          <path class="cls-2" d="M161.69,13.15c.26.39.59.68.99.86.4.19.82.28,1.25.28.24,0,.48-.04.73-.11.25-.07.48-.19.68-.34.2-.15.37-.34.5-.55.13-.22.19-.47.19-.76,0-.41-.13-.72-.39-.94-.26-.21-.58-.39-.97-.54-.38-.14-.8-.28-1.26-.42s-.87-.32-1.26-.56c-.38-.24-.71-.56-.97-.97-.26-.4-.39-.95-.39-1.64,0-.31.07-.64.2-.99.13-.35.35-.67.63-.96.29-.29.66-.53,1.11-.73.46-.2,1-.29,1.64-.29.58,0,1.13.08,1.66.24.53.16.99.48,1.39.97l-1.17,1.06c-.18-.28-.43-.5-.76-.67-.33-.17-.7-.25-1.12-.25s-.73.05-1,.16c-.26.1-.47.24-.64.4-.16.16-.27.34-.34.53-.07.19-.1.36-.1.52,0,.45.13.79.39,1.03.26.24.58.43.97.58.38.15.8.28,1.26.4.46.12.87.29,1.26.5.39.22.71.5.97.87.26.36.39.87.39,1.5,0,.51-.1.97-.29,1.38-.19.41-.46.75-.79,1.03-.33.28-.72.49-1.17.64-.45.15-.93.23-1.44.23-.68,0-1.32-.12-1.93-.36-.61-.24-1.09-.61-1.45-1.11l1.18-1.02Z"/>
          <path class="cls-2" d="M171.55,4.77h3.7c.75,0,1.41.08,1.97.25.56.17,1.05.4,1.47.68.41.28.76.61,1.03.98.27.37.49.75.65,1.14.16.39.27.78.34,1.17.07.39.11.75.11,1.08,0,.68-.12,1.33-.38,1.97-.25.63-.62,1.2-1.11,1.69-.49.49-1.09.89-1.82,1.19-.72.3-1.56.45-2.51.45h-3.46V4.77ZM172.98,14.01h1.81c.61,0,1.18-.08,1.73-.25.54-.16,1.02-.41,1.43-.74.41-.33.73-.74.97-1.23.24-.49.36-1.07.36-1.73,0-.34-.05-.74-.16-1.19-.11-.45-.32-.88-.62-1.29-.3-.41-.73-.76-1.27-1.04s-1.24-.43-2.09-.43h-2.16v7.9Z"/>
          <rect class="cls-2" x="184.97" y="4.77" width="1.44" height="10.59"/>
          <path class="cls-2" d="M198.6,7.06c-.3-.39-.68-.69-1.14-.9-.46-.21-.93-.31-1.42-.31-.6,0-1.14.11-1.62.34-.48.23-.9.53-1.24.92-.34.39-.61.85-.8,1.37-.19.52-.28,1.09-.28,1.68,0,.56.09,1.09.27,1.59.18.5.44.94.78,1.32.34.38.75.68,1.24.9.49.22,1.04.33,1.66.33s1.14-.12,1.6-.38c.46-.25.85-.6,1.17-1.05l1.21.91c-.08.11-.22.27-.42.47-.2.2-.47.41-.79.61-.33.2-.73.38-1.19.54-.46.15-1,.23-1.61.23-.84,0-1.59-.16-2.27-.48-.67-.32-1.25-.74-1.72-1.26-.47-.52-.84-1.1-1.09-1.76-.25-.65-.37-1.31-.37-1.98,0-.82.13-1.57.4-2.27.27-.69.64-1.29,1.13-1.8.48-.5,1.06-.9,1.74-1.18.68-.28,1.43-.42,2.25-.42.7,0,1.38.13,2.06.4.67.27,1.23.68,1.65,1.24l-1.2.91Z"/>
          <path class="cls-2" d="M211.23,7.06c-.3-.39-.68-.69-1.14-.9-.46-.21-.93-.31-1.42-.31-.6,0-1.14.11-1.62.34-.48.23-.9.53-1.24.92-.34.39-.61.85-.8,1.37-.19.52-.28,1.09-.28,1.68,0,.56.09,1.09.27,1.59.18.5.44.94.78,1.32.34.38.75.68,1.24.9.49.22,1.04.33,1.66.33s1.14-.12,1.6-.38c.46-.25.85-.6,1.17-1.05l1.21.91c-.08.11-.22.27-.42.47-.2.2-.47.41-.79.61-.33.2-.73.38-1.19.54-.46.15-1,.23-1.61.23-.84,0-1.59-.16-2.27-.48-.67-.32-1.25-.74-1.72-1.26-.47-.52-.83-1.1-1.09-1.76-.25-.65-.37-1.31-.37-1.98,0-.82.13-1.57.4-2.27.27-.69.64-1.29,1.13-1.8.48-.5,1.07-.9,1.74-1.18.68-.28,1.43-.42,2.25-.42.7,0,1.38.13,2.06.4.67.27,1.23.68,1.65,1.24l-1.2.91Z"/>
          <rect class="cls-2" x="216.48" y="4.77" width="1.44" height="10.59"/>
          <path class="cls-2" d="M227.6,15.63c-.81,0-1.55-.14-2.23-.43-.68-.28-1.26-.67-1.74-1.17-.49-.5-.86-1.09-1.14-1.77-.28-.68-.41-1.41-.41-2.2s.13-1.52.41-2.2c.27-.68.65-1.27,1.14-1.77.48-.5,1.06-.89,1.74-1.17.68-.29,1.42-.43,2.23-.43s1.55.14,2.23.43c.68.28,1.26.67,1.74,1.17.48.5.86,1.09,1.14,1.77s.41,1.41.41,2.2-.14,1.52-.41,2.2c-.27.68-.65,1.27-1.14,1.77-.48.5-1.06.89-1.74,1.17-.68.29-1.42.43-2.23.43M227.6,14.28c.61,0,1.16-.11,1.65-.34.49-.23.91-.53,1.26-.91.35-.38.62-.82.81-1.34.19-.51.28-1.06.28-1.64s-.09-1.12-.28-1.64c-.19-.51-.46-.96-.81-1.34-.35-.38-.77-.68-1.26-.9-.49-.23-1.04-.34-1.65-.34s-1.16.11-1.65.34c-.49.22-.91.52-1.26.9-.35.38-.62.83-.81,1.34-.19.52-.28,1.06-.28,1.64s.09,1.12.28,1.64c.19.51.46.96.81,1.34.35.38.77.68,1.26.91.49.22,1.04.34,1.65.34M228.17,2.01h1.92l-2.23,2.16h-1.24l1.56-2.16Z"/>
          <polygon class="cls-2" points="237.28 4.77 239.17 4.77 245 13.48 245.04 13.48 245.04 4.77 246.47 4.77 246.47 15.36 244.65 15.36 238.75 6.65 238.72 6.65 238.72 15.36 237.28 15.36 237.28 4.77"/>
          <polygon class="cls-2" points="121.95 22.94 128.78 22.94 128.78 24.28 123.38 24.28 123.38 27.44 128.41 27.44 128.41 28.79 123.38 28.79 123.38 32.18 129.05 32.18 129.05 33.53 121.95 33.53 121.95 22.94"/>
          <path class="cls-2" d="M133.5,31.32c.26.39.59.68.99.86.4.19.82.28,1.25.28.24,0,.48-.04.73-.11.25-.07.48-.19.68-.34.2-.15.37-.33.5-.55.13-.22.2-.47.2-.76,0-.41-.13-.72-.39-.94-.26-.21-.58-.39-.97-.54-.38-.14-.8-.28-1.26-.42s-.87-.32-1.26-.56c-.38-.24-.71-.56-.97-.97-.26-.4-.39-.95-.39-1.64,0-.31.07-.64.2-.99.13-.35.35-.67.63-.96.29-.29.66-.53,1.11-.73.46-.2,1-.29,1.64-.29.58,0,1.13.08,1.66.24.53.16.99.48,1.39.97l-1.17,1.06c-.18-.28-.43-.5-.76-.67-.33-.17-.7-.25-1.12-.25s-.73.05-.99.16c-.27.1-.48.24-.64.4-.16.16-.27.34-.34.53-.07.19-.1.36-.1.52,0,.45.13.79.39,1.03.26.24.58.43.97.58.39.15.8.28,1.26.4.46.12.87.29,1.26.5.38.22.7.51.96.87.26.36.39.87.39,1.5,0,.51-.1.97-.29,1.38-.2.41-.46.75-.79,1.03-.33.28-.72.49-1.17.64-.45.15-.93.23-1.44.23-.68,0-1.32-.12-1.93-.36-.61-.24-1.09-.61-1.45-1.11l1.18-1.02Z"/>
          <path class="cls-2" d="M143.6,22.94h3.73c.68,0,1.24.09,1.68.28.44.19.79.42,1.04.7.25.28.43.6.53.96.1.35.15.7.15,1.03s-.05.67-.15,1.02c-.1.35-.28.67-.53.96-.25.28-.6.52-1.04.7-.44.19-1,.28-1.68.28h-2.29v4.67h-1.44v-10.59ZM145.04,27.61h1.88c.28,0,.56-.02.83-.07.27-.04.52-.13.73-.25.21-.12.39-.29.52-.52.13-.22.19-.51.19-.87s-.07-.65-.19-.88c-.13-.23-.3-.4-.52-.52-.21-.12-.46-.2-.73-.25-.28-.04-.55-.07-.83-.07h-1.88v3.41Z"/>
          <polygon class="cls-2" points="154.57 22.94 161.4 22.94 161.4 24.28 156 24.28 156 27.44 161.03 27.44 161.03 28.79 156 28.79 156 32.18 161.67 32.18 161.67 33.53 154.57 33.53 154.57 22.94"/>
          <path class="cls-2" d="M173.18,25.23c-.3-.39-.68-.69-1.14-.9-.46-.21-.93-.31-1.42-.31-.6,0-1.14.11-1.62.34-.48.23-.9.53-1.24.92-.34.39-.61.85-.8,1.37-.19.52-.28,1.09-.28,1.68,0,.56.09,1.09.27,1.59.18.5.44.94.78,1.32.34.38.75.68,1.24.9.49.22,1.04.33,1.66.33s1.14-.12,1.6-.38c.46-.25.85-.6,1.17-1.05l1.21.91c-.08.11-.22.27-.42.47-.2.2-.47.41-.79.61-.33.2-.73.38-1.19.54-.46.15-1,.23-1.61.23-.84,0-1.59-.16-2.27-.48-.67-.32-1.25-.74-1.72-1.26-.47-.52-.84-1.1-1.09-1.76-.25-.65-.37-1.31-.37-1.98,0-.82.13-1.57.4-2.27.27-.69.64-1.29,1.13-1.8.48-.5,1.07-.9,1.74-1.18.68-.28,1.43-.42,2.25-.42.7,0,1.38.13,2.06.4.67.27,1.23.68,1.65,1.24l-1.2.91Z"/>
          <rect class="cls-2" x="178.43" y="22.94" width="1.44" height="10.59"/>
          <path class="cls-2" d="M188.01,22.94h1.3l4.53,10.59h-1.68l-1.06-2.62h-5.04l-1.05,2.62h-1.68l4.67-10.59ZM190.58,29.66l-1.97-4.86h-.03l-2,4.86h4.01Z"/>
          <polygon class="cls-2" points="197.32 22.94 198.75 22.94 198.75 32.18 203.62 32.18 203.62 33.53 197.32 33.53 197.32 22.94"/>
          <path class="cls-2" d="M213.43,22.94h3.73c.68,0,1.24.09,1.68.28.44.19.79.42,1.04.7.25.28.43.6.53.96.1.35.15.7.15,1.03s-.05.67-.15,1.02c-.1.35-.28.67-.53.96-.25.28-.6.52-1.04.7-.44.19-1,.28-1.68.28h-2.29v4.67h-1.44v-10.59ZM214.87,27.61h1.88c.28,0,.56-.02.83-.07.27-.04.52-.13.73-.25.21-.12.39-.29.52-.52.13-.22.19-.51.19-.87s-.07-.65-.19-.88c-.13-.23-.3-.4-.52-.52-.21-.12-.46-.2-.73-.25-.28-.04-.55-.07-.83-.07h-1.88v3.41Z"/>
          <path class="cls-2" d="M226.61,22.94h1.3l4.53,10.59h-1.68l-1.06-2.62h-5.04l-1.05,2.62h-1.68l4.67-10.59ZM229.19,29.66l-1.97-4.86h-.03l-2,4.86h4.01Z"/>
          <path class="cls-2" d="M235.92,22.94h3.73c.68,0,1.24.09,1.68.28.44.19.79.42,1.04.7.25.28.43.6.53.96.1.35.15.7.15,1.03s-.06.67-.18.98c-.12.31-.29.6-.52.85-.22.25-.5.47-.82.64-.32.17-.69.28-1.09.32l3.01,4.83h-1.8l-2.69-4.67h-1.6v4.67h-1.44v-10.59ZM237.36,27.61h1.88c.28,0,.56-.02.83-.07.28-.04.52-.13.73-.25.21-.12.39-.29.52-.52.13-.22.2-.51.2-.87s-.07-.65-.2-.88c-.13-.23-.3-.4-.52-.52-.21-.12-.46-.2-.73-.25-.27-.04-.55-.07-.83-.07h-1.88v3.41Z"/>
          <path class="cls-2" d="M250.48,22.94h1.3l4.53,10.59h-1.68l-1.06-2.62h-5.04l-1.05,2.62h-1.68l4.67-10.59ZM253.06,29.66l-1.97-4.86h-.03l-2,4.86h4.01Z"/>
          <polygon class="cls-2" points="266.04 22.94 267.48 22.94 267.48 32.18 272.34 32.18 272.34 33.53 266.04 33.53 266.04 22.94"/>
          <path class="cls-2" d="M279.23,22.94h1.3l4.53,10.59h-1.68l-1.06-2.62h-5.04l-1.05,2.62h-1.68l4.67-10.59ZM281.8,29.66l-1.97-4.86h-.03l-2,4.86h4.01Z"/>
          <path class="cls-2" d="M294.79,22.94h3.73c.68,0,1.24.09,1.68.28.44.19.79.42,1.04.7.25.28.43.6.53.96.1.35.15.7.15,1.03s-.05.67-.15,1.02c-.1.35-.28.67-.53.96-.25.28-.6.52-1.04.7-.44.19-1,.28-1.68.28h-2.29v4.67h-1.44v-10.59ZM296.22,27.61h1.88c.28,0,.56-.02.83-.07.28-.04.52-.13.73-.25.22-.12.39-.29.52-.52.13-.22.19-.51.19-.87s-.07-.65-.19-.88c-.13-.23-.3-.4-.52-.52-.21-.12-.46-.2-.73-.25-.28-.04-.55-.07-.83-.07h-1.88v3.41Z"/>
          <path class="cls-2" d="M307.97,22.94h1.3l4.53,10.59h-1.68l-1.06-2.62h-5.04l-1.05,2.62h-1.68l4.67-10.59ZM310.55,29.66l-1.97-4.86h-.03l-2,4.86h4.01Z"/>
          <polygon class="cls-2" points="316.4 32.18 322.42 24.28 316.57 24.28 316.57 22.94 324.22 22.94 324.22 24.28 318.22 32.18 324.31 32.18 324.31 33.53 316.4 33.53 316.4 32.18"/>
          <rect class="cls-2" x="108.55" y=".17" width="2.05" height="37.87"/>
        </g>
      </g>
    </g>
  </g>
</svg>