<?xml version="1.0" encoding="utf-8"?>
<!-- Generator: Adobe Illustrator 28.0.0, SVG Export Plug-In . SVG Version: 6.00 Build 0)  -->
<svg version="1.1" id="Capa_1" xmlns="http://www.w3.org/2000/svg" xmlns:xlink="http://www.w3.org/1999/xlink" x="0px" y="0px"
	 viewBox="0 0 512 512" style="enable-background:new 0 0 512 512;" xml:space="preserve">
<style type="text/css">
	.st0{fill:none;stroke:#FFFFFF;stroke-width:32;stroke-linecap:round;stroke-linejoin:round;}
</style>
<path class="st0" d="M68,48h136c11,0,20,9,20,20v136c0,11-9,20-20,20H68c-11,0-20-9-20-20V68C48,57,57,48,68,48z"/>
<path class="st0" d="M308,48h136c11,0,20,9,20,20v136c0,11-9,20-20,20H308c-11,0-20-9-20-20V68C288,57,297,48,308,48z"/>
<path class="st0" d="M68,288h136c11,0,20,9,20,20v136c0,11-9,20-20,20H68c-11,0-20-9-20-20V308C48,297,57,288,68,288z"/>
<path class="st0" d="M308,288h136c11,0,20,9,20,20v136c0,11-9,20-20,20H308c-11,0-20-9-20-20V308C288,297,297,288,308,288z"/>
</svg>
